<?xml version="1.0" encoding="UTF-8" standalone="no"?>
<!-- Created with Inkscape (http://www.inkscape.org/) -->

<svg
   xmlns:dc="http://purl.org/dc/elements/1.1/"
   xmlns:cc="http://creativecommons.org/ns#"
   xmlns:rdf="http://www.w3.org/1999/02/22-rdf-syntax-ns#"
   xmlns:svg="http://www.w3.org/2000/svg"
   xmlns="http://www.w3.org/2000/svg"
   xmlns:sodipodi="http://sodipodi.sourceforge.net/DTD/sodipodi-0.dtd"
   xmlns:inkscape="http://www.inkscape.org/namespaces/inkscape"
   width="210mm"
   height="297mm"
   viewBox="0 0 210 297"
   version="1.1"
   id="svg8"
   inkscape:version="0.92.3 (2405546, 2018-03-11)"
   sodipodi:docname="drawing.svg">
  <defs
     id="defs2" />
  <sodipodi:namedview
     id="base"
     pagecolor="#ffffff"
     bordercolor="#666666"
     borderopacity="1.0"
     inkscape:pageopacity="0.0"
     inkscape:pageshadow="2"
     inkscape:zoom="0.35"
     inkscape:cx="-155.71429"
     inkscape:cy="560"
     inkscape:document-units="mm"
     inkscape:current-layer="layer1"
     showgrid="false"
     inkscape:window-width="1920"
     inkscape:window-height="986"
     inkscape:window-x="-11"
     inkscape:window-y="-11"
     inkscape:window-maximized="1" />
  <metadata
     id="metadata5">
    <rdf:RDF>
      <cc:Work
         rdf:about="">
        <dc:format>image/svg+xml</dc:format>
        <dc:type
           rdf:resource="http://purl.org/dc/dcmitype/StillImage" />
        <dc:title></dc:title>
      </cc:Work>
    </rdf:RDF>
  </metadata>
  <g
     inkscape:label="Layer 1"
     inkscape:groupmode="layer"
     id="layer1">
    <path
       style="fill:none;stroke:#000000;stroke-width:0.26458332px;stroke-linecap:butt;stroke-linejoin:miter;stroke-opacity:1"
       d="m 89.202381,125.39881 c -2.015874,0 -4.031748,0 -6.047621,0 -0.251984,0 -0.577771,-0.17818 -0.755952,0 -0.178178,0.17818 0.07968,0.5169 0,0.75595 -0.178178,0.53454 -0.503968,1.00794 -0.755952,1.51191 -0.251983,0.50396 -0.577773,0.97736 -0.755951,1.5119 -0.215866,0.64759 0.166727,2.35689 0,3.02381 -0.13666,0.54663 -0.577773,0.97736 -0.755954,1.5119 -0.07968,0.23906 0,0.50397 0,0.75596 0,0.75595 0,1.5119 0,2.26785 0,1.76389 0,3.52778 0,5.29167 0,0.50397 -0.22538,1.06114 0,1.51191 0.318738,0.63747 1.007938,1.00793 1.511905,1.5119 0.755952,0.75595 1.60001,1.43305 2.267858,2.26786 2.015871,4.03174 -0.755954,-0.75595 2.267857,2.26785 0.178179,0.17818 -0.112691,0.53058 0,0.75596 0.159367,0.31873 0.503968,0.50396 0.755952,0.75595 0.251984,0.25198 0.41788,0.64326 0.755952,0.75595 3.441311,0 0.04323,-0.35636 2.267857,0.75595 0.250214,0.12511 5.216152,0 6.047618,0 3.779764,0 7.55952,0 11.33929,0 2.26785,0 4.53571,0 6.80357,0 1.00794,0 2.01587,0 3.02381,0 0.75595,0 1.5195,0.10691 2.26785,0 3.83327,-0.5476 1.952,-0.47842 4.53572,-1.5119 1.53669,-0.61468 2.45013,-0.62549 3.77976,-1.51191 0.29651,-0.19767 0.50397,-0.50396 0.75595,-0.75595 0.25199,-0.25198 0.59659,-0.43721 0.75596,-0.75595 0.11503,-0.23006 0,-1.92741 0,-2.26786 0,-1.5119 0,-3.02381 0,-4.53571 0,-1.51191 0,-3.02381 0,-4.53572 0,-1.25992 0.20712,-2.53698 0,-3.77976 -0.11717,-0.70302 -1.19317,-0.87443 -1.51191,-1.5119 -0.29522,-0.59044 -0.85137,-3.11923 -1.5119,-3.77976 -0.17818,-0.17818 -0.53057,0.11269 -0.75596,0 -0.20071,-0.10036 -2.1675,-2.06715 -2.26785,-2.26786 -0.11269,-0.22538 0.11269,-0.53057 0,-0.75596 -1.02006,-2.04011 -0.33884,0.0261 -1.51191,-0.75595 -0.59302,-0.39534 -0.91889,-1.11656 -1.5119,-1.5119 -0.23029,-0.15352 -4.13593,0.08 -4.53572,0 -0.55251,-0.1105 -0.96527,-0.6193 -1.5119,-0.75595 -0.48892,-0.12223 -1.00794,0 -1.51191,0 -1.25992,0 -2.51984,0 -3.77976,0 -3.46655,0 0.79684,0.15936 -3.77976,-0.75596 -0.49418,-0.0988 -1.00794,0 -1.51191,0 -2.26785,0 -4.53571,0 -6.803565,0 -6.551589,0 -13.103175,0 -19.654763,0"
       id="path10"
       inkscape:connector-curvature="0" />
    <path
       style="fill:none;stroke:#000000;stroke-width:0.26458332px;stroke-linecap:butt;stroke-linejoin:miter;stroke-opacity:1"
       d="m 87.690475,151.85714 c 2.015873,2.01587 4.153601,3.91685 6.047618,6.04762 0.16741,0.18834 -0.06111,0.51149 0,0.75595 0.193265,0.77305 0.562689,1.49481 0.755954,2.26786 0.06111,0.24446 -0.07968,0.5169 0,0.75595 0.178179,0.53454 0.577771,0.97737 0.755952,1.51191 0.07968,0.23905 0,0.50396 0,0.75595 0.251984,0.50397 0.577773,0.97736 0.755951,1.5119 0.07968,0.23906 -0.07968,0.5169 0,0.75596 0.178181,0.53454 0.577774,0.97736 0.755955,1.5119 0.159366,0.47811 -0.122233,1.02298 0,1.5119 0.193262,0.77306 0.562689,1.49481 0.755951,2.26786 0.06111,0.24446 -0.112691,0.53057 0,0.75595 0.159369,0.31874 0.643261,0.41788 0.755952,0.75596 0.159369,0.4781 -0.22538,1.06114 0,1.5119 0.318738,0.63748 1.193168,0.87443 1.511906,1.51191 0.338076,0.67614 -0.338074,1.59171 0,2.26785 0.159369,0.31874 0.596586,0.43722 0.755956,0.75596 0.11269,0.22538 0,0.50396 0,0.75595 0,0.50397 -0.15937,1.0338 0,1.5119 0.11269,0.33808 0.50396,0.50397 0.75595,0.75596"
       id="path12"
       inkscape:connector-curvature="0" />
    <path
       style="fill:none;stroke:#000000;stroke-width:0.26458332px;stroke-linecap:butt;stroke-linejoin:miter;stroke-opacity:1"
       d="m 108.85714,154.88095 c 0,2.51984 0,5.03968 0,7.55953 0,0.50396 0.12223,1.02298 0,1.5119 -0.19326,0.77305 -0.59968,1.48649 -0.75595,2.26786 -0.0988,0.49418 0.12223,1.02298 0,1.5119 -0.37531,1.50124 -1.89255,3.03448 -2.26786,4.53571 -0.12223,0.48892 0.12223,1.02299 0,1.51191 -0.91261,3.65045 -0.35924,-0.0375 -1.5119,2.26786 -0.11269,0.22538 0,0.50397 0,0.75595 -0.25199,0.25198 -0.59659,0.43722 -0.75596,0.75595 -0.11269,0.22538 0.1127,0.53057 0,0.75595 -0.40631,0.81263 -1.10559,1.45524 -1.5119,2.26786 -0.11269,0.22538 0.11269,0.53057 0,0.75595 -0.15937,0.31874 -0.50397,0.50397 -0.75595,0.75596 -0.50397,0.50396 -1.11656,0.91888 -1.511906,1.5119 -0.139777,0.20967 0.112688,0.53057 0,0.75595 -0.159369,0.31874 -0.643263,0.41788 -0.755954,0.75595 -0.159367,0.47811 -0.30238,1.91509 0,1.51191 1.01422,-1.35229 1.51191,-3.02381 2.26786,-4.53571"
       id="path14"
       inkscape:connector-curvature="0" />
    <path
       style="fill:none;stroke:#000000;stroke-width:0.26458332px;stroke-linecap:butt;stroke-linejoin:miter;stroke-opacity:1"
       d="m 101.29762,182.09524 c -2.015874,0.75595 -4.031748,1.5119 -6.047621,2.26785 -0.251984,0 -0.577773,-0.17818 -0.755952,0 -1.357908,1.35791 3.261752,0.55718 -1.511906,1.51191 -0.741272,0.14825 -1.573027,-0.29779 -2.267857,0 -1.15805,0.4963 -1.97549,1.56898 -3.023809,2.26785 -0.468821,0.31255 -1.071923,0.40397 -1.511904,0.75596 -3.988813,3.19105 -0.337547,1.65656 -5.291666,3.77976 -0.732417,0.31389 -1.528009,0.46001 -2.267858,0.75595 -1.256278,0.50251 -2.765586,1.50723 -3.779763,2.26786 -0.285086,0.21381 -0.459444,0.55828 -0.755952,0.75595 -0.46882,0.31255 -1.053404,0.42845 -1.511905,0.75595 -1.312948,0.93782 -2.540247,1.99088 -3.779761,3.02381 -0.273762,0.22814 -0.437216,0.59659 -0.755952,0.75595 -1.861875,0.93094 0.682424,-2.19433 -2.267857,0.75596 -0.398423,0.39842 -0.443405,1.04308 -0.755952,1.5119 -0.197673,0.29651 -0.596585,0.43722 -0.755954,0.75595 -0.112689,0.22539 0.139777,0.54629 0,0.75596 -0.395346,0.59301 -1.116558,0.91888 -1.511903,1.5119 -0.139777,0.20966 0.139774,0.54629 0,0.75596 -0.395346,0.59301 -1.193168,0.87442 -1.511906,1.5119 -2.235306,4.47061 2.724531,-1.61683 -0.755952,3.02381 -0.698611,0.93148 -2.382226,2.06143 -3.023809,3.02381 -0.31255,0.46882 -0.357531,1.11348 -0.755954,1.5119 -0.178179,0.17818 -0.577771,-0.17818 -0.755952,0 -0.520978,0.52098 -1.713547,3.70425 -2.267857,4.53572 -0.197673,0.29651 -0.596583,0.43721 -0.755952,0.75595 -0.112691,0.22538 0.112691,0.53057 0,0.75595 -0.406313,0.81263 -1.044464,1.48879 -1.511906,2.26786 -0.289893,0.48316 -0.443404,1.04308 -0.755951,1.5119 -1.153232,1.72985 -0.59839,-0.47269 -1.511904,2.26786 -0.07968,0.23905 0.07968,0.5169 0,0.75595 -0.178181,0.53454 -0.577773,0.97737 -0.755954,1.51191 -0.07969,0.23905 0.112691,0.53057 0,0.75595 -0.159369,0.31874 -0.596582,0.43721 -0.755952,0.75595 -0.112691,0.22538 0.07968,0.5169 0,0.75595 -0.178181,0.53454 -0.577773,0.97737 -0.755951,1.51191 -0.07968,0.23905 0.07968,0.5169 0,0.75595 -0.178181,0.53454 -0.577773,0.97737 -0.755954,1.51191 -0.159367,0.4781 0.225382,1.06114 0,1.5119 -0.335013,0.67003 -1.809086,1.5797 -2.267855,2.26786 -0.868643,1.30296 -0.755955,1.14268 -0.755955,2.26786 0,0.25198 0.112692,0.53057 0,0.75595 -0.159369,0.31874 -0.755951,0.39959 -0.755951,0.75595 0,0.25199 0.503968,0 0.755951,0 0.755955,0 1.511906,0 2.267858,0 1.007938,0 2.035447,0.19767 3.023809,0 0.374946,-0.075 1.816579,-1.96701 2.267858,-2.26786 0.468823,-0.31255 1.043082,-0.4434 1.511905,-0.75595 0.889527,-0.59302 1.412595,-1.62641 2.267858,-2.26786 1.224039,-0.91803 1.497131,-0.35581 2.267855,-1.5119 0.312549,-0.46882 0.443404,-1.04308 0.755954,-1.51191 1.029838,-1.54475 1.117637,0.0217 2.267857,-1.5119 0.503968,-0.75595 1.007936,-1.51191 1.511904,-2.26786 0,-0.25198 -0.112692,-0.53057 0,-0.75595 0.159369,-0.31874 0.503967,-0.50397 0.755951,-0.75595 0.655807,-0.65581 2.703198,-2.48946 3.023812,-3.02381 0.409972,-0.68329 0.34598,-1.58457 0.755952,-2.26786 0.805045,-1.34174 2.897655,-2.4566 3.77976,-3.77976 0.139777,-0.20966 -0.112688,-0.53057 0,-0.75595 0.953625,-1.90725 1.617554,-2.37351 3.02381,-3.77977 0.251986,-0.25198 0.459443,-0.55827 0.755954,-0.75595 0.46882,-0.31254 1.043083,-0.4434 1.511903,-0.75595 0.872255,-0.5815 1.395606,-1.68636 2.267858,-2.26786 1.789578,-1.19305 1.905666,-0.39376 3.779763,-2.26785 0.178178,-0.17818 0,-0.50397 0,-0.75596 0.251984,-0.25198 0.459441,-0.55828 0.755951,-0.75595 0.468821,-0.31255 1.113484,-0.35753 1.511904,-0.75595 0.178181,-0.17818 -0.112689,-0.53057 0,-0.75595 0.159369,-0.31874 0.558281,-0.45945 0.755954,-0.75595 0.312547,-0.46883 0.357529,-1.11349 0.755952,-1.51191 0.178181,-0.17818 0.577773,0.17818 0.755951,0 0.398423,-0.39842 0.443405,-1.04308 0.755954,-1.51191 0.197671,-0.2965 0.596583,-0.43721 0.755952,-0.75595 0.112691,-0.22538 -0.07968,-0.5169 0,-0.75595 0.525518,-1.57655 0.986388,-1.44726 1.511903,-3.02381 0.226788,-0.68036 -0.226785,-1.5875 0,-2.26786 0.170633,-0.51189 1.979126,-1.69039 2.267858,-2.26785 0.112691,-0.22539 -0.112689,-0.53058 0,-0.75596 0.159369,-0.31873 0.596585,-0.43721 0.755954,-0.75595 0.112689,-0.22538 -0.112691,-0.53057 0,-0.75595 0.159367,-0.31874 0.558279,-0.45944 0.755952,-0.75595 0.312547,-0.46883 0.443404,-1.04309 0.755951,-1.51191 0.395346,-0.59302 1.193168,-0.87443 1.511906,-1.5119 0.22538,-0.45076 -0.376671,-1.17709 0,-1.51191 2.147353,-1.90875 4.535715,-3.52777 6.803573,-5.29166"
       id="path16"
       inkscape:connector-curvature="0" />
    <path
       style="fill:none;stroke:#000000;stroke-width:0.26458332px;stroke-linecap:butt;stroke-linejoin:miter;stroke-opacity:1"
       d="m 101.29762,182.09524 c -3.246427,4.05803 -1.882905,2.63885 -3.779764,4.53571 -0.251984,0.25198 -0.643263,0.41788 -0.755951,0.75595 -0.159369,0.47811 0.159366,1.0338 0,1.51191 -0.112692,0.33807 -0.596585,0.43721 -0.755955,0.75595 -0.112688,0.22538 0.07968,0.5169 0,0.75595 -0.178178,0.53454 -0.645448,0.95939 -0.755951,1.51191 -0.148254,0.74127 0,1.5119 0,2.26785 0,0.50397 0.225382,1.06115 0,1.51191 -2.461265,4.92253 -0.757611,-1.50693 -2.267858,3.02381 -0.07968,0.23905 0,0.50397 0,0.75595 0,0.50397 0.159369,1.0338 0,1.5119 -0.112691,0.33808 -0.64326,0.41788 -0.755951,0.75596 -0.159369,0.4781 0.09883,1.01772 0,1.5119 -0.156274,0.78137 -0.599678,1.48649 -0.755952,2.26786 -0.123772,0.61886 0.193905,3.39195 0,3.77976 -0.406313,0.81263 -1.174483,1.4243 -1.511906,2.26786 -0.266523,0.66631 0.213061,3.68347 0,4.53571 -0.136657,0.54663 -0.577773,0.97737 -0.755951,1.51191 -0.07968,0.23905 0,0.50397 0,0.75595 0,1.25992 0,2.51984 0,3.77976 0,3.02381 0,6.04762 0,9.07143 0,3.02381 0,6.04762 0,9.07143 0,0.11099 -0.152914,3.16811 0,3.77976 0.193262,0.77305 0.562689,1.4948 0.755951,2.26786 0.06112,0.24446 -0.04942,0.50886 0,0.75595 0.203756,1.01878 0.58515,1.99899 0.755952,3.02381 0.08285,0.49711 -0.12223,1.02298 0,1.5119 0.136657,0.54663 0.619294,0.96528 0.755954,1.51191 0.654595,2.61839 -0.957244,0.45402 0.755952,3.02381 -0.07546,1.49758 1.113483,0.35753 1.511903,0.75595 0.920739,0.92074 0.354105,1.68896 1.511906,2.26786 0.284837,0.14242 4.428148,0.0358 4.535715,0 0.503966,-0.25199 1.007936,-0.50397 1.511906,-0.75595 0,-0.25199 -0.17818,-0.57778 0,-0.75596 0.17818,-0.17818 0.50396,0 0.75595,0 0.50397,-0.50397 1.11656,-0.91888 1.5119,-1.5119 0.13978,-0.20967 -0.0797,-0.5169 0,-0.75595 0.17819,-0.53454 0.57778,-0.97737 0.75596,-1.51191 0.0797,-0.23905 -0.0494,-0.50886 0,-0.75595 0.20375,-1.01878 0.58515,-1.99899 0.75595,-3.02381 0.0828,-0.49711 -0.0988,-1.01773 0,-1.51191 -1.2848,-2.04618 1.15554,-1.95473 1.5119,-3.02381 0.15937,-0.4781 -0.0988,-1.01772 0,-1.5119 0.15628,-0.78137 0.59968,-1.48649 0.75596,-2.26786 0.0988,-0.49418 -0.12223,-1.02298 0,-1.5119 0.13666,-0.54663 0.57777,-0.97737 0.75595,-1.51191 0.0797,-0.23905 0,-0.50397 0,-0.75595 0,-0.75595 0,-1.5119 0,-2.26786 0,-0.25198 -0.0611,-0.51149 0,-0.75595 0.19326,-0.77305 0.56269,-1.4948 0.75595,-2.26786 0.12223,-0.48892 0,-1.00793 0,-1.5119 0,-1.00794 -0.12502,-2.02366 0,-3.02381 -2.54391,-2.86181 1.18279,-2.4633 1.51191,-3.77976 0.18334,-0.73338 -0.12428,-1.52219 0,-2.26786 0.131,-0.786 0.59968,-1.48649 0.75595,-2.26786 0.0988,-0.49418 0,-1.00793 0,-1.5119 0,-1.20189 -0.19847,-3.54339 0,-4.53571 0.1105,-0.55252 0.61929,-0.96528 0.75595,-1.51191 0.1279,-0.51159 0,-4.8052 0,-5.29166 0,-2.77183 0,-5.54366 0,-8.31548 0,-1.76389 0,-3.52778 0,-5.29167 0,-0.34045 0.11503,-2.03779 0,-2.26785 -0.15639,-0.31278 -1.94744,-2.05425 -2.26786,-2.26786 -0.46882,-0.31255 -1.04308,-0.44341 -1.5119,-0.75596 -0.29651,-0.19767 -0.50397,-0.50396 -0.75595,-0.75595 -0.25199,-0.25198 -0.59659,-0.43721 -0.75596,-0.75595 -0.11269,-0.22538 0.11269,-0.53057 0,-0.75595 -0.15937,-0.31874 -0.50396,-0.50397 -0.75595,-0.75596 -0.25198,-0.25198 -0.43721,-0.59658 -0.75595,-0.75595 -0.22538,-0.11269 -0.50397,0 -0.75595,0 -1.00794,-0.75595 -2.01587,-1.5119 -3.02381,-2.26785 z"
       id="path18"
       inkscape:connector-curvature="0" />
    <path
       style="fill:none;stroke:#000000;stroke-width:0.26458332px;stroke-linecap:butt;stroke-linejoin:miter;stroke-opacity:1"
       d="m 104.32143,184.36309 c -0.25199,0.75595 -0.75596,1.47101 -0.75596,2.26786 0,1.27393 4.65759,5.41354 5.29167,6.04762 1.76389,1.76389 3.52778,3.52778 5.29167,5.29167 0.75595,0.75595 1.5119,1.5119 2.26786,2.26785 0.25198,0.25199 0.50396,0.50397 0.75595,0.75595 0.25198,0.25199 0.43721,0.59659 0.75595,0.75596 0.45076,0.22538 1.15554,-0.35636 1.5119,0 0.17819,0.17818 -0.11269,0.53057 0,0.75595 0.15937,0.31874 0.50397,0.50397 0.75596,0.75595 0.25198,0.25199 0.43721,0.59659 0.75595,0.75595 0.22538,0.11269 0.53057,-0.11269 0.75595,0 0.31278,0.15639 2.05425,1.94744 2.26786,2.26786 0.31255,0.46882 0.35753,1.11348 0.75595,1.51191 0.64244,0.64243 1.62542,0.86947 2.26786,1.5119 0.17818,0.17818 -0.0797,0.5169 0,0.75595 0.17818,0.53454 0.4434,1.04309 0.75595,1.51191 0.69888,1.04832 1.56898,1.97549 2.26786,3.02381 0.0939,0.14081 1.46346,2.97537 1.5119,3.02381 0.64244,0.64243 1.62542,0.86947 2.26786,1.5119 0.85234,0.85234 1.29832,3.89495 1.5119,4.53572 0.5508,1.65239 1.84357,2.59952 3.02381,3.77976 0.25199,0.25198 0.59659,0.43721 0.75596,0.75595 0.19921,0.39843 -0.19922,1.11347 0,1.51191 0.20187,0.40374 1.86987,1.86987 2.26785,2.26785 1.00794,1.00794 2.01588,2.01588 3.02381,3.02381 0.25199,0.25199 0.50397,0.50397 0.75596,0.75595 0.25198,0.25199 0.43721,0.59659 0.75595,0.75596 0.22538,0.11269 0.53057,-0.11269 0.75595,0 0.31874,0.15937 0.43721,0.59658 0.75595,0.75595 0.44603,0.22301 1.74789,-0.17332 2.26786,0 0.53454,0.17818 0.97737,0.57777 1.5119,0.75595 0.23906,0.0797 0.50397,0 0.75596,0 0.50397,0 1.00793,0 1.5119,0 1.51191,0 3.02381,0 4.53572,0 1.25992,0 2.51984,0 3.77976,0 0.25198,0 0.57777,0.17818 0.75595,0 0.17818,-0.17818 -0.0797,-0.5169 0,-0.75595 0.17818,-0.53454 0.64545,-0.95939 0.75595,-1.51191 0.14826,-0.74127 0,-1.5119 0,-2.26785 0,-2.26786 0,-4.53572 0,-6.80357 0,-2.01588 0,-4.03175 0,-6.04762 0,-0.86682 0.19577,-2.24073 0,-3.02381 -0.27331,-1.09326 -1.15554,-1.95474 -1.5119,-3.02381 -0.0797,-0.23905 0.0797,-0.5169 0,-0.75595 -0.17818,-0.53454 -0.50397,-1.00794 -0.75595,-1.51191 -0.25199,-0.50397 -0.44341,-1.04308 -0.75596,-1.5119 -0.19767,-0.29651 -0.59658,-0.43722 -0.75595,-0.75596 -0.35636,-0.71271 -0.34598,-1.58457 -0.75595,-2.26785 -0.36669,-0.61116 -1.00794,-1.00794 -1.51191,-1.51191 -0.25198,-0.25198 -0.43721,-0.59658 -0.75595,-0.75595 -0.22538,-0.11269 -0.57777,0.17818 -0.75595,0 -4.65239,-6.97858 0.22888,-1.01949 -2.26786,-2.26786 -0.31874,-0.15937 -0.50397,-0.50397 -0.75595,-0.75595 -0.44461,-0.44461 -2.67374,-2.84878 -3.02381,-3.02381 -0.71272,-0.35636 -1.49481,-0.56269 -2.26786,-0.75595 -0.24446,-0.0611 -0.53057,0.11269 -0.75595,0 -0.81262,-0.40631 -1.45523,-1.10559 -2.26786,-1.51191 -0.22538,-0.11269 -0.50397,0 -0.75595,0 -0.50397,-0.25198 -1.02875,-0.46605 -1.5119,-0.75595 -1.77657,-1.06594 -3.34787,-2.24629 -5.29167,-3.02381 -3.64008,-1.45603 -0.99077,-0.0783 -5.29167,-1.5119 -2.58493,-0.86165 -0.56254,-0.62702 -3.02381,-2.26786 -0.20966,-0.13978 -0.53057,0.11269 -0.75595,0 -0.63747,-0.31874 -0.91889,-1.11656 -1.5119,-1.51191 -1.95909,-1.30605 -1.98276,-0.16415 -3.77977,-1.5119 -0.50396,-0.50397 -1.00793,-1.00794 -1.5119,-1.51191 -0.25198,0 -0.53057,0.1127 -0.75595,0 -3.4597,-1.72984 3.20782,0.31333 -2.26786,-1.5119 -0.47811,-0.15937 -1.09258,0.27955 -1.5119,0 -0.59302,-0.39534 -0.91889,-1.11656 -1.51191,-1.5119 -0.20966,-0.13978 -0.50397,0 -0.75595,0 -0.25199,0 -1.00794,0 -0.75595,0 0.50396,0 2.01587,0 1.5119,0 -2.01587,0 -4.03175,0 -6.04762,0 -0.50397,0 -1.06114,-0.22538 -1.5119,0 -1.12691,0.56345 -2.01588,1.5119 -3.02381,2.26785 z"
       id="path20"
       inkscape:connector-curvature="0" />
    <path
       style="fill:none;stroke:#000000;stroke-width:0.26458332px;stroke-linecap:butt;stroke-linejoin:miter;stroke-opacity:1"
       d="m 92.22619,256.17857 c -9.367041,-2.01001 -1.072592,3.34045 -2.267858,4.53571 -0.178181,0.17818 -0.511492,-0.0611 -0.755951,0 -0.773052,0.19327 -1.576004,0.36061 -2.267858,0.75595 -1.093917,0.6251 -1.896904,1.70441 -3.023809,2.26786 -0.450763,0.22538 -1.022985,-0.12223 -1.511906,0 -1.093261,0.27332 -1.930548,1.2386 -3.023809,1.51191 -0.488921,0.12224 -1.061141,-0.2254 -1.511906,0 -0.637474,0.31874 -0.941729,1.08426 -1.511903,1.51191 -0.450763,0.33806 -1.043083,0.44339 -1.511906,0.75594 -0.593016,0.39534 -0.918887,1.11657 -1.511903,1.51191 -0.468823,0.31255 -1.043083,0.44341 -1.511906,0.75594 -0.296508,0.1977 -0.503968,0.50398 -0.755952,0.75597 -0.251984,0.25199 -0.558281,0.45945 -0.755951,0.75594 -0.31255,0.46884 -0.417881,1.06114 -0.755955,1.51191 -0.42763,0.57017 -1.116557,0.91889 -1.511903,1.51191 -0.139777,0.20965 0.07968,0.51689 0,0.75594 -0.178181,0.53453 -0.577773,0.97737 -0.755954,1.5119 -0.07968,0.23906 0.112691,0.53057 0,0.75597 -0.318736,0.63746 -1.193165,0.87442 -1.511903,1.51191 -0.35636,0.71271 -0.34598,1.58456 -0.755952,2.26785 -4.218768,7.03128 1.515078,-5.29802 -3.023812,3.77976 -0.112688,0.22537 0,0.50398 0,0.75594 -0.251984,0.50398 -0.443404,1.04309 -0.755951,1.51191 -0.197673,0.29652 -0.596583,0.43722 -0.755952,0.75597 -0.112691,0.22537 0.178178,0.57777 0,0.75594 -0.178181,0.17817 -0.577773,-0.17817 -0.755952,0 -0.178181,0.17817 0,0.50397 0,0.75596 0,1.76388 0,3.52777 0,5.29167 0,0.74515 0,2.25706 0,1.51188 0,-0.50395 -0.225382,-1.06114 0,-1.51188 0.112689,-0.2254 0.530569,0.11269 0.755952,0 0.318738,-0.15938 0.465971,-0.54882 0.755952,-0.75597 1.511906,-1.00793 3.023809,-2.01586 4.535715,-3.02381 0.503967,-0.50396 0.941728,-1.08427 1.511903,-1.51189 0.450765,-0.33808 1.061143,-0.41788 1.511906,-0.75596 1.053182,-0.78989 2.070097,-2.0701 3.023809,-3.02382 0.503968,-0.50395 1.007938,-1.00793 1.511906,-1.51188 0.251984,-0.25199 0.623604,-0.42508 0.755951,-0.75597 0.251984,-1.00793 0.503968,-2.01586 0.755952,-3.02382 0.251984,-0.25196 0.596585,-0.43719 0.755954,-0.75594 0.930937,-1.86187 -2.19433,0.68242 0.755952,-2.26785 0.178178,-0.17819 0.577773,0.17817 0.755952,0 0.398422,-0.39843 0.443404,-1.04309 0.755951,-1.51191 0.395346,-0.59301 1.11656,-0.91889 1.511906,-1.5119 0.312547,-0.46882 0.443405,-1.0431 0.755952,-1.51191 0.693311,-1.03997 1.166222,-0.77748 2.267857,-1.51191 0.296511,-0.19767 0.503968,-0.50395 0.755952,-0.75594 1.259922,-1.25992 2.519841,-2.51984 3.779763,-3.77976 0.251984,-0.25199 0.596583,-0.43722 0.755952,-0.75597 0.112691,-0.22537 -0.178179,-0.57777 0,-0.75594 0.178181,-0.17817 0.54629,0.13978 0.755951,0 0.889529,-0.59301 1.511906,-1.51191 2.267858,-2.26786 0.397983,-0.39798 2.065986,-1.86412 2.267857,-2.26786 0.112692,-0.22538 0.04143,-0.50739 0,-0.75595 -0.21123,-1.26739 -0.503967,-2.51984 -0.755951,-3.77976"
       id="path22"
       inkscape:connector-curvature="0" />
    <path
       style="fill:none;stroke:#000000;stroke-width:0.26458332px;stroke-linecap:butt;stroke-linejoin:miter;stroke-opacity:1"
       d="m 102.05357,257.69047 c -0.25199,0.50397 -0.57777,0.97737 -0.75595,1.51191 -0.15937,0.4781 0,1.00794 0,1.5119 0,0.50397 -0.22538,1.06114 0,1.51191 0.11269,0.22538 0.57777,-0.17818 0.75595,0 0.17818,0.17818 -0.11269,0.53057 0,0.75595 0.762,1.524 0.7499,-0.0121 1.5119,1.5119 0.1127,0.22539 0,0.50397 0,0.75596 0.25199,0.50395 0.41788,1.06114 0.75596,1.51191 0.64144,0.85526 1.67484,1.37832 2.26785,2.26785 0.31255,0.46881 0.35754,1.11347 0.75596,1.51191 0.17818,0.17817 0.61617,-0.20966 0.75595,0 0.44201,0.66302 0.39959,1.55514 0.75595,2.26785 0.31874,0.63748 1.19317,0.87442 1.51191,1.51191 0.40462,0.80922 -0.6546,1.61327 0.75595,3.02381 0.64243,0.64244 1.62542,0.86948 2.26786,1.51191 2.95028,2.95026 -0.17499,0.40598 0.75595,2.26785 0.5789,1.15779 1.34712,0.59116 2.26786,1.51191 0.17818,0.17817 -0.1127,0.53057 0,0.75594 0.28873,0.57748 2.09722,1.75596 2.26785,2.26785 0.15937,0.47813 -0.15937,1.03381 0,1.51191 0.50843,1.52527 1.51217,0 2.26786,1.51191 0.35636,0.71273 0.34598,1.58456 0.75595,2.26785 0.36669,0.61116 1.00794,1.00795 1.51191,1.5119 0.75595,0.75597 1.5119,1.51191 2.26785,2.26788 0.25199,0.25196 0.50397,0.50395 0.75596,0.75594 0.25198,0.25199 0.43721,0.59658 0.75595,0.75594 0.22538,0.11272 0.53057,-0.11268 0.75595,0 0.5969,0.29845 0.91501,1.21346 1.51191,1.51191 0.32285,0.16142 3.48092,0 3.77976,0 0.25198,0 0.50396,0 0.75595,0 0.25198,0 0.57777,0.1782 0.75595,0 0.17818,-0.17817 0,-0.50395 0,-0.75594 0,-1.7639 0,-3.52777 0,-5.29167 0,-2.26785 0,-4.53572 0,-6.80357 0,-0.64003 0.13547,-2.61742 0,-3.02382 -0.11269,-0.33806 -0.50397,-0.50395 -0.75595,-0.75594 -0.86492,-0.86492 -0.89488,-1.05426 -2.26786,-1.51191 -0.23905,-0.0797 -0.57777,0.17817 -0.75595,0 -0.64244,-0.64243 -0.86947,-1.62541 -1.5119,-2.26785 -0.39843,-0.39843 -1.04309,-0.44341 -1.51191,-0.75597 -0.29651,-0.19767 -0.50397,-0.50395 -0.75595,-0.75594 -0.50397,-0.50397 -1.11656,-0.91889 -1.51191,-1.5119 -0.13977,-0.20966 0.11269,-0.53057 0,-0.75595 -0.83572,-1.67145 -0.46917,-0.2346 -1.5119,-0.75596 -0.45834,-0.22916 -2.70006,-2.78099 -3.02381,-3.02382 -0.45076,-0.33806 -1.00794,-0.50395 -1.51191,-0.75594 -0.50396,-0.25199 -0.97736,-0.57777 -1.5119,-0.75594 -0.47811,-0.15939 -1.15555,0.35634 -1.5119,0 -0.17819,-0.1782 0.11269,-0.5306 0,-0.75597 -0.15937,-0.31874 -0.50397,-0.50395 -0.75596,-0.75594 -0.25198,-0.25199 -0.50396,-0.50398 -0.75595,-0.75597 -0.39798,-0.39798 -1.86411,-2.06598 -2.26786,-2.26785 -0.22538,-0.11269 -0.57777,0.17818 -0.75595,0 -0.17818,-0.17818 0.17818,-0.57777 0,-0.75595 -0.39842,-0.39842 -1.04308,-0.4434 -1.5119,-0.75595 -0.32042,-0.21362 -2.11147,-1.95508 -2.26786,-2.26786 -0.11269,-0.22538 0,-0.50397 0,-0.75595 -0.25198,-0.75595 -0.31394,-1.60485 -0.75595,-2.26786 -0.13978,-0.20966 -0.5065,-0.0356 -0.75596,0 -1.51735,0.21676 -3.02381,0.50396 -4.53571,0.75595"
       id="path24"
       inkscape:connector-curvature="0" />
    <path
       style="fill:none;stroke:#000000;stroke-width:0.26458332px;stroke-linecap:butt;stroke-linejoin:miter;stroke-opacity:1"
       d="m 155.72619,205.52976 c -3.1456,-8.65038 -0.93827,-10.40102 -3.77976,-7.55952 -0.25199,0.25198 -0.59659,0.43721 -0.75596,0.75595 -0.11269,0.22538 0,0.50397 0,0.75595 0,0.50397 0.18717,1.04398 0,1.5119 -0.83776,2.09441 -1.71751,1.85356 -2.26785,3.77977 -0.35298,1.23543 -0.40297,2.54432 -0.75596,3.77976 -0.15479,0.54177 -0.45732,1.0341 -0.75595,1.5119 -0.96305,1.54089 -2.21118,2.91047 -3.02381,4.53572 -0.42717,0.85435 -0.54373,3.56754 -1.5119,4.53571 -0.8909,0.8909 -2.13291,1.37696 -3.02381,2.26786 -1.30751,1.30751 -2.13445,3.8094 -3.02381,5.29167 -0.18335,0.30557 -0.59659,0.43721 -0.75595,0.75595 -0.60686,1.21372 -0.90505,2.56604 -1.51191,3.77976 -0.65709,1.31419 -1.45283,2.55723 -2.26786,3.77976 -0.19767,0.29651 -0.66952,0.41024 -0.75595,0.75595 -0.59302,0.94922 0.19768,2.03545 0,3.02381 -0.20375,1.01879 -0.55219,2.00503 -0.75595,3.02381 -0.14825,0.74128 0,1.51191 0,2.26786 0,0.18334 -0.0243,2.24355 0,2.26786 0.17818,0.17818 0.50397,0 0.75595,0 0.50397,0 1.00794,0 1.51191,0 1.99606,0 6.74216,0.42403 8.31547,-0.75596 0.45077,-0.33807 0.44341,-1.04308 0.75596,-1.5119 0.19767,-0.29651 0.55828,-0.45944 0.75595,-0.75595 0.31255,-0.46882 0.50397,-1.00794 0.75595,-1.51191 0.25198,-0.50397 0.60116,-0.97013 0.75595,-1.5119 0.35298,-1.23544 0.27877,-2.58679 0.75596,-3.77976 0.54568,-1.36422 1.53887,-2.50405 2.26785,-3.77977 1.66549,-0.38069 0.3996,-1.55513 0.75595,-2.26785 0.31874,-0.63748 1.11656,-0.91889 1.51191,-1.51191 0.31255,-0.46882 0.44341,-1.04308 0.75595,-1.5119 0.19768,-0.29651 0.55828,-0.45945 0.75595,-0.75595 0.31255,-0.46883 0.50397,-1.00794 0.75596,-1.51191 0.25198,-0.50397 0.57777,-0.97737 0.75595,-1.5119 0.22678,-0.68036 -0.22679,-1.5875 0,-2.26786 -1.37452,-2.16134 1.67822,-2.6005 2.26786,-3.77976 0.48032,-0.96066 1.35043,-4.48431 1.5119,-5.29167 0.0494,-0.24709 -0.11269,-0.53057 0,-0.75595 0.40631,-0.81263 1.26231,-1.39427 1.51191,-2.26786 0.2769,-0.96915 -0.19768,-2.03544 0,-3.02381 0.0699,-0.34944 0.6236,-0.42508 0.75595,-0.75595 2.10194,-1.00716 0.44432,-2.53325 0.75595,-3.77976 0.19326,-0.77306 0.59968,-1.48649 0.75595,-2.26786 0.0988,-0.49418 -0.15937,-1.0338 0,-1.5119 0.35636,-1.06908 1.09338,-1.97751 1.51191,-3.02381 0.0936,-0.23396 0,-0.50397 0,-0.75596 0.25198,-0.75595 0.46001,-1.528 0.75595,-2.26785 0.20926,-0.52316 0.6193,-0.96528 0.75595,-1.51191 0.24446,-0.97784 -0.19767,-2.03544 0,-3.02381 0.15628,-0.78137 0.56269,-1.4948 0.75595,-2.26786 0.12223,-0.48892 -0.22538,-1.06114 0,-1.5119 0.40632,-0.81262 1.1056,-1.45523 1.51191,-2.26786 0.11269,-0.22538 -0.0797,-0.5169 0,-0.75595 0.17818,-0.53454 0.61929,-0.96527 0.75595,-1.5119 0.12223,-0.48892 0,-1.00794 0,-1.51191 0,-0.25198 -0.11269,-0.53057 0,-0.75595 0.15937,-0.31874 0.64326,-0.41788 0.75595,-0.75595 0.15937,-0.47811 0,-1.00794 0,-1.51191 0,-0.25198 -0.11269,-0.53057 0,-0.75595 0.15937,-0.31874 0.59659,-0.43722 0.75596,-0.75595 0.11269,-0.22538 0,-0.50397 0,-0.75596 0,-0.50396 0,-1.00793 0,-1.5119 0,-1.51191 0,-3.02381 0,-4.53571 0,-1.51191 0,-3.02381 0,-4.53572 0,-0.50397 0,-1.00793 0,-1.5119 0,-0.25199 0.11269,-0.53057 0,-0.75595 -0.15937,-0.31874 -0.43722,-0.59659 -0.75596,-0.75596 -0.22538,-0.11269 -0.50396,0 -0.75595,0 -0.75595,0 -1.5119,0 -2.26786,0 -0.50396,0 -1.00793,0 -1.5119,0 -0.25199,0 -0.53057,-0.11269 -0.75595,0 -2.40147,1.20074 -4.18019,3.42423 -6.04762,5.29167 -1.31346,1.31345 -3.06971,2.76057 -3.77976,4.53571 -0.18717,0.46793 0.15936,1.0338 0,1.51191 -0.11269,0.33807 -0.66952,0.41023 -0.75596,0.75595 -0.18334,0.73338 0.14826,1.52659 0,2.26786 -0.1105,0.55251 -0.61929,0.96527 -0.75595,1.5119 -0.12223,0.48892 0.12223,1.02299 0,1.51191 -0.13665,0.54663 -0.61929,0.96527 -0.75595,1.5119 -0.12223,0.48892 0.0828,1.01479 0,1.51191 -0.70701,4.24204 -0.61317,1.69673 -1.51191,5.29166 -0.12222,0.48892 0.0829,1.0148 0,1.51191 -0.21123,1.26739 -0.6281,2.50126 -0.75595,3.77976 -0.15044,1.5044 0,3.02381 0,4.53571 0,3.2758 0,6.55159 0,9.82738 0,1.25993 0,2.51984 0,3.77977 0,0.50396 0.0829,1.01479 0,1.5119 -0.1708,1.02482 -0.58515,1.99899 -0.75595,3.02381 -0.25755,1.54532 0.22376,3.72531 0,5.29167 -0.14693,1.02851 -0.58515,1.99899 -0.75595,3.02381 -0.0829,0.49711 0.0625,1.01183 0,1.5119 -0.4052,3.24154 -0.52171,4.16304 -1.51191,6.80357 -0.082,0.21854 -2.09627,5.0181 -2.26785,6.04762 -0.33141,1.98845 0.28508,4.05201 0,6.04762 -0.0797,0.55779 -0.57778,0.97737 -0.75596,1.51191 -0.15936,0.4781 0,1.00793 0,1.5119 0,1.25992 0,2.51984 0,3.77976 0,0.25199 0.25199,0.75595 0,0.75595 -0.25198,0 0,-0.50396 0,-0.75595 0,-0.50397 0,-1.00793 0,-1.5119 0,-0.50397 -0.25929,-1.07976 0,-1.51191 1.7201,-2.86682 2.28844,-1.20595 3.02381,-3.77976 2.84737,-9.96579 -0.68735,-0.16008 1.51191,-5.29167 0.53454,-1.24725 0.90504,-2.56604 1.5119,-3.77976 0.40632,-0.81262 1.10559,-1.45523 1.51191,-2.26785 0.60686,-1.21372 0.96078,-2.53975 1.5119,-3.77977 0.45768,-1.02978 1.11622,-1.96865 1.51191,-3.0238 0.7296,-1.94562 0.66798,-4.1488 1.5119,-6.04763 0.59674,-1.34267 1.61076,-2.46557 2.26786,-3.77976 0.60686,-1.21371 0.90505,-2.56604 1.5119,-3.77976 4.48682,-8.97364 -0.17512,1.5518 5.29167,-7.55952 0.69816,-1.1636 0.86211,-2.58848 1.5119,-3.77976 0.87012,-1.59521 2.14136,-2.9473 3.02381,-4.53572 0.38699,-0.69657 0.36898,-1.57129 0.75596,-2.26785 0.88245,-1.58842 1.96765,-3.0571 3.02381,-4.53572 2.51758,-3.52461 -2.29512,4.96139 2.26785,-3.02381 2.29421,-4.01486 0.85436,-1.75792 2.26786,-5.29167 0.20926,-0.52315 0.61929,-0.96527 0.75595,-1.5119 0.32813,-1.31252 -0.32813,-3.22319 0,-4.53572 0.13666,-0.54663 0.57777,-0.97736 0.75596,-1.5119 0.14216,-0.42651 0,-1.77111 0,-2.26786 0,-1.5119 0,-3.02381 0,-4.53571 0,-0.50397 0,-1.00794 0,-1.5119 0,-0.25199 0.17817,-0.57778 0,-0.75596 -0.0243,-0.0243 -2.08452,0 -2.26786,0 -5.36176,0 -0.44283,-0.53454 -3.02381,0.75596 -0.22538,0.11268 -0.5169,-0.0797 -0.75595,0 -0.53454,0.17817 -0.97737,0.57777 -1.51191,0.75595 -0.23905,0.0797 -0.53057,-0.11269 -0.75595,0 -0.63748,0.31873 -0.87443,1.19316 -1.51191,1.5119 -0.45076,0.22538 -1.06114,-0.22538 -1.5119,0 -0.86664,0.43332 -1.05154,1.57731 -1.51191,2.26786 -0.19767,0.29651 -0.59658,0.43721 -0.75595,0.75595 -0.11269,0.22538 0.0797,0.5169 0,0.75595 -0.17818,0.53454 -0.57777,0.97737 -0.75595,1.51191 -0.23905,0.71716 0.18334,1.53447 0,2.26785 -0.13666,0.54664 -0.6193,0.96528 -0.75595,1.51191 -0.12223,0.48892 0,1.00794 0,1.51191 -0.25199,0.50396 -0.57778,0.97736 -0.75595,1.5119 -0.37798,1.13393 0.75595,0.75595 0,2.26786 -0.31874,0.63747 -1.24721,0.85016 -1.51191,1.5119 -0.28075,0.70189 0.20768,1.54099 0,2.26786 -0.30958,1.08355 -1.15554,1.95473 -1.5119,3.02381 -0.15937,0.4781 0,1.00793 0,1.5119 0,0.75595 0.14825,1.52659 0,2.26786 -0.11051,0.55251 -0.64545,0.95939 -0.75596,1.51191 -0.31498,1.5749 0.20999,2.30985 0,3.77976 -0.18171,1.27195 -0.54472,2.51237 -0.75595,3.77976 -0.0414,0.24855 0.0494,0.50886 0,0.75595 -0.20376,1.01878 -0.62709,1.99287 -0.75595,3.02381 -0.12502,1.00015 0.31873,2.06759 0,3.02381 -0.71272,2.13815 -2.09118,3.99582 -3.02381,6.04762 -0.32974,0.72542 -0.3996,1.55514 -0.75595,2.26786 -5.14208,10.28414 -0.4668,-0.77108 -3.02381,6.04761 -0.93846,2.50255 -2.79628,6.8586 -3.77976,9.07143 -0.22885,0.51489 -0.57778,0.97737 -0.75596,1.51191 -0.32854,0.98564 -0.25139,2.11559 -0.75595,3.02381 -0.78358,1.41044 -2.08599,2.46681 -3.02381,3.77976 -2.06353,2.88895 0.212,0.11996 -0.75595,3.02381 -0.11269,0.33807 -0.50397,0.50397 -0.75595,0.75595 -0.25199,0.75595 -0.56269,1.49481 -0.75596,2.26786 -0.16103,0.64412 0,1.60136 0,2.26785 0,0.25199 -0.20966,0.89573 0,0.75596 2.82723,-1.88482 2.47785,-2.77183 3.02381,-6.04762 0.0414,-0.24856 -0.0611,-0.51149 0,-0.75595 0.70914,-2.83655 0.96977,-2.2628 2.26786,-5.29167 0.31389,-0.73241 0.36061,-1.576 0.75595,-2.26786 6.75311,-9.00414 -1.2223,2.44461 3.02381,-6.04762 0.31874,-0.63747 1.14522,-0.90075 1.51191,-1.5119 0.40997,-0.68329 0.46001,-1.52801 0.75595,-2.26786 0.20926,-0.52315 0.46606,-1.02875 0.75595,-1.5119 0.46744,-0.77907 1.17448,-1.4243 1.51191,-2.26786 0.18717,-0.46792 -0.12223,-1.02298 0,-1.51191 0.13666,-0.54662 0.50397,-1.00793 0.75595,-1.5119 0,-1.00794 -0.1657,-2.02959 0,-3.02381 0.0926,-0.55579 0.50397,-1.00794 0.75595,-1.5119 0.50397,-1.00794 1.06799,-1.98802 1.51191,-3.02381 0.31389,-0.73242 0.50397,-1.51191 0.75595,-2.26786 0.75595,-1.76389 1.48845,-3.53801 2.26786,-5.29167 0.22884,-0.51489 0.57777,-0.97736 0.75595,-1.5119 0.0797,-0.23905 -0.15119,-0.55437 0,-0.75595 0.64145,-0.85527 1.71782,-1.35113 2.26786,-2.26786 0.25928,-0.43215 -0.0988,-1.01772 0,-1.51191 0.15627,-0.78137 0.53704,-1.50167 0.75595,-2.26785 0.28542,-0.99898 0.29131,-2.09454 0.75595,-3.02381 0.31874,-0.63748 1.1583,-0.8931 1.5119,-1.51191 0.67325,-1.17818 0.90505,-2.56604 1.51191,-3.77976 0.15937,-0.31874 0.6236,-0.42508 0.75595,-0.75595 3.5375,-8.84374 -1.14121,1.34114 1.51191,-5.29167 0.20926,-0.52315 0.54669,-0.98875 0.75595,-1.5119 0.29594,-0.73985 0.47616,-1.52175 0.75595,-2.26786 0.47647,-1.27058 1.13912,-2.475 1.51191,-3.77976 0.13308,-0.46581 0,-3.24727 0,-3.77976 0,-0.25199 0.17818,-0.57778 0,-0.75596 -0.17818,-0.17818 -0.50397,0 -0.75596,0"
       id="path26"
       inkscape:connector-curvature="0" />
    <path
       style="fill:none;stroke:#000000;stroke-width:0.26458332px;stroke-linecap:butt;stroke-linejoin:miter;stroke-opacity:1"
       d="m 108.85714,135.22619 c 2.92909,-2.38619 3.23222,-2.26786 6.04762,-2.26786 0.25199,0 0.50397,0 0.75595,0 0.25199,0 0.75596,-0.25198 0.75596,0 0,0.25199 -0.75596,0.25199 -0.75596,0 0,-0.25198 1.00794,0 0.75596,0 -0.55378,0 -4.38523,-0.0645 -4.53572,0 -1.15805,0.49631 -1.76389,2.26786 -3.02381,2.26786 -1.69036,0 -2.95298,-1.67433 -4.53571,-2.26786 -0.47188,-0.17695 -1.00794,0 -1.51191,0 -1.25992,0 -2.51984,0 -3.77976,0 -1.363523,0 -2.685736,-0.33807 -3.779761,0.75595 -0.06438,0.0644 -0.125074,1.89264 0,2.26786 0.178181,0.53454 0.357531,1.11349 0.755951,1.51191 0.178181,0.17818 0.503968,0 0.755955,0 0.503967,0 1.007935,0 1.511903,0 1.763892,0 3.527772,0 5.291662,0 0.27799,0 2.11699,0.0905 2.26786,0 1.08038,-0.64823 2.7505,-1.03794 3.02381,-2.26786 0.34572,-1.55574 -3.02381,-4.03175 -1.5119,-4.53571 1.5119,-0.50397 3.10559,4.53571 1.5119,4.53571 -1.69036,0 -1.33021,-3.12925 -2.26786,-4.53571 -0.13977,-0.20967 -0.50396,0 -0.75595,0 -0.25198,0 -0.53057,-0.1127 -0.75595,0 -0.31874,0.15936 -0.59658,0.43721 -0.75595,0.75595 -0.11269,0.22538 0,0.50396 0,0.75595 0,0.50397 -0.15937,1.0338 0,1.5119 0.11269,0.33808 0.41788,0.64326 0.75595,0.75596 3.01006,1.00335 5.22354,1.03064 8.31548,0 0.23905,-0.0797 0.11269,-0.53058 0,-0.75596 -1.23532,-2.47063 -3.64394,1.51191 -4.53572,1.51191 -1.91905,0 -3.4948,-1.59403 -5.29167,-2.26786 -0.33027,-0.12385 -2.86549,0 -3.0238,0 -0.25199,0 -0.53058,-0.11269 -0.755956,0 -1.152811,0.57641 -0.755954,1.98655 -0.755954,3.02381 0,0.25199 -0.178179,0.57777 0,0.75595 0.178181,0.17818 0.50397,0 0.755954,0 0.755956,0 1.511906,0 2.267856,0 0.25199,0 0.50397,0 0.75595,0 0.25199,0 0.50397,0 0.75595,0 0.59804,0 6.31101,0.187 5.29167,-1.5119 -1.42027,-2.36712 -3.91136,-2.26786 -6.04762,-2.26786"
       id="path28"
       inkscape:connector-curvature="0" />
    <path
       style="fill:none;stroke:#000000;stroke-width:0.26458332px;stroke-linecap:butt;stroke-linejoin:miter;stroke-opacity:1"
       d="m 89.202381,125.39881 c 2.771825,-2.01587 6.058545,-3.46827 8.315475,-6.04762 0.663731,-0.75855 -2.015873,0 -3.023809,0 -0.251984,0 -0.508862,-0.0494 -0.755954,0 -1.018781,0.20376 -2.038167,0.4274 -3.023809,0.75595 -0.534538,0.17818 -0.959393,0.64545 -1.511903,0.75595 -0.741273,0.14826 -1.534478,-0.18334 -2.267858,0 -0.34572,0.0864 -0.470866,0.54214 -0.755952,0.75596 -0.755954,0.50396 -1.511905,1.00793 -2.267857,1.5119 -0.251984,0 -0.530572,-0.11269 -0.755954,0 -0.318736,0.15937 -0.503968,0.50397 -0.755952,0.75595 -0.251984,0.25199 -0.596582,0.43722 -0.755952,0.75595 -0.112691,0.22539 0.112692,0.53058 0,0.75596 -0.159369,0.31873 -0.503967,0.50397 -0.755951,0.75595 -0.503971,0.50397 -1.084276,0.94173 -1.511906,1.51191 -0.338071,0.45076 -0.443405,1.04308 -0.755952,1.5119 -0.35882,0.53823 -1.642255,1.21647 -0.755954,1.51191 0.717161,0.23905 1.511906,0 2.267858,0 2.437741,0 4.552341,0.23905 6.803572,-1.51191 1.159801,-0.90207 0.95367,-3.12267 2.267858,-3.77976 1.57767,-0.78884 3.545504,0.24945 5.291666,0 1.816034,-0.25944 3.534561,-0.98477 5.291667,-1.51191 0.763236,-0.22897 1.555136,-0.39959 2.267856,-0.75595 1.31419,-0.65709 2.50405,-1.53888 3.77976,-2.26786 0.48922,-0.27955 0.97737,-0.57777 1.51191,-0.75595 2.25034,-0.75011 -1.55107,1.79 2.26785,-0.75595 0.29651,-0.19767 1.07469,-0.59658 0.75596,-0.75595 -0.67615,-0.33807 -1.51191,0 -2.26786,0 -0.75595,0 -1.51191,0 -2.26786,0 -5.03968,0 -10.079363,0 -15.119046,0 -0.755952,0 -1.511903,0 -2.267858,0 -0.251984,0 -0.755951,0.25198 -0.755951,0 0,-0.25199 0.503967,0 0.755951,0 0.755955,0 1.511906,0 2.267858,0 1.007938,0 2.015873,0 3.023809,0 1.007938,0 2.026004,0.14254 3.023812,0 5.346495,-0.76379 0.478784,-0.2394 3.023809,-1.51191 0.475126,-0.23756 2.548676,0.23757 3.023806,0 0.31874,-0.15937 1.07469,-0.59658 0.75595,-0.75595 -0.67614,-0.33807 -1.5119,0 -2.26785,0 -1.00794,0 -2.015874,0 -3.023812,0 -1.007936,0 -2.015874,0 -3.023809,0 -0.755952,0 -1.526585,-0.14826 -2.267858,0 -0.552511,0.1105 -0.965274,0.61929 -1.511903,0.75595 -0.488921,0.12223 -2.015874,0 -1.511906,0 5.291667,0 10.583338,0 15.874998,0 1.76389,0 3.52778,0 5.29167,0 0.50397,0 1.00793,0 1.5119,0 0.25199,0 1.00794,0 0.75596,0 -1.51191,0 -3.02381,0 -4.53572,0 -1.00793,0 -2.02087,-0.10029 -3.02381,0 -1.52515,0.15252 -3.01479,0.56584 -4.53571,0.75595 -4.300532,0.53757 2.82222,-1.61269 -6.047621,0 -1.335088,0.24275 -2.519842,1.00794 -3.779761,1.51191 -11.830412,4.73216 2.962034,-0.98734 -6.803572,2.26786 -0.534541,0.17818 -1.007936,0.50396 -1.511906,0.75595 -1.007936,0 -2.029587,-0.16571 -3.023809,0 -0.797539,0.13292 -3.50528,2.10316 -3.779761,2.26785 -4.773658,2.8642 0.409453,-0.13648 -2.267858,0.75596 -0.53454,0.17818 -0.965274,0.61929 -1.511905,0.75595 -3.441309,0 -0.04323,-0.35636 -2.267855,0.75595 -0.225383,0.11269 -0.530572,-0.11269 -0.755955,0 -0.503967,0.25199 -1.290492,1.33373 -0.755951,1.51191 0.717158,0.23905 1.511906,0 2.267857,0 2.31579,0 3.846711,0.24446 6.047619,-0.75595 1.849466,-0.84067 3.474582,-2.11527 5.291666,-3.02382 1.213718,-0.60685 2.566046,-0.90504 3.779763,-1.5119 1.352312,-0.67616 4.264409,-3.09492 5.291667,-3.77976 1.222536,-0.81503 2.53379,-1.48913 3.779761,-2.26786 0.770443,-0.48153 1.455232,-1.10559 2.267857,-1.5119 0.22538,-0.11269 0.516898,0.0797 0.755952,0 4.692272,-1.56409 -2.512423,0.0611 3.779762,-1.51191 0.48892,-0.12223 1.00794,0 1.5119,0 2.01588,0 4.03175,0 6.04762,0 4.53572,0 9.07143,0 13.60715,0 0.25198,0 -0.5074,-0.0414 -0.75596,0 -2.11218,-0.3272 -4.0796,1.1183 -6.04761,1.51191 -0.49419,0.0988 -1.04399,-0.18717 -1.51191,0 -5.3053,3.53686 0.093,0.54372 -3.77976,1.5119 -0.54663,0.13666 -0.97737,0.57777 -1.51191,0.75595 -0.23905,0.0797 -1.00793,0 -0.75595,0 3.77976,0 7.55953,0 11.33929,0 0.25198,0 0.50397,0 0.75595,0 0.25198,0 0.64326,-0.22538 0.75595,0 0.22538,0.45077 0.22538,1.06115 0,1.51191 -0.11269,0.22538 -0.5169,-0.0797 -0.75595,0 -0.53454,0.17818 -0.97737,0.57777 -1.51191,0.75595 -0.23905,0.0797 -0.53057,-0.11269 -0.75595,0 -0.31874,0.15937 -0.50397,0.50397 -0.75595,0.75595 -0.50397,0.50397 -1.19317,0.87443 -1.5119,1.51191 -0.1127,0.22538 0.50396,0 0.75595,0 0.25198,0 0.50396,0 0.75595,0 1.25992,0 2.51984,0 3.77976,0 0.50397,0 1.00794,0 1.51191,0 0.25198,0 0.75595,-0.25199 0.75595,0 0,0.25198 -0.51149,-0.0611 -0.75595,0 -0.77306,0.19326 -1.51191,0.50397 -2.26786,0.75595"
       id="path30"
       inkscape:connector-curvature="0" />
  </g>
</svg>
